<svg xmlns="http://www.w3.org/2000/svg" style="display:none">
  <symbol id="home" viewBox="0 0 24 24">
  <svg xmlns="http://www.w3.org/2000/svg" width="24" height="24" viewBox="0 0 24 24"><path d="M20 7.093v-5.093h-3v2.093l3 3zm4 5.907l-12-12-12 12h3v10h7v-5h4v5h7v-10h3zm-5 8h-3v-5h-8v5h-3v-10.26l7-6.912 7 6.99v10.182z"/></svg>
  </symbol>
  <symbol id="checklist" viewBox="0 0 24 24">
 <svg clip-rule="evenodd" fill-rule="evenodd" stroke-linejoin="round" stroke-miterlimit="2" viewBox="0 0 24 24" xmlns="http://www.w3.org/2000/svg"><path d="m22 17.75c0-.414-.336-.75-.75-.75h-12.5c-.414 0-.75.336-.75.75s.336.75.75.75h12.5c.414 0 .75-.336.75-.75zm-19.806-.537 1.249 1.114c.13.116.293.173.456.173.184 0 .369-.075.504-.222l2.116-2.313c.119-.131.178-.296.178-.459 0-.375-.302-.682-.683-.682-.185 0-.369.074-.504.221l-1.661 1.815-.746-.665c-.131-.116-.292-.173-.454-.173-.379 0-.683.307-.683.682 0 .188.076.374.228.509zm19.806-3.463c0-.414-.336-.75-.75-.75h-12.5c-.414 0-.75.336-.75.75s.336.75.75.75h12.5c.414 0 .75-.336.75-.75zm-19.806-1.449 1.249 1.114c.13.116.293.173.456.173.184 0 .369-.074.504-.222l2.116-2.313c.119-.131.178-.295.178-.459 0-.375-.302-.682-.683-.682-.185 0-.369.074-.504.221l-1.661 1.815-.746-.665c-.131-.116-.292-.173-.454-.173-.379 0-.683.307-.683.683 0 .187.076.374.228.508zm19.806-2.551c0-.414-.336-.75-.75-.75h-12.5c-.414 0-.75.336-.75.75s.336.75.75.75h12.5c.414 0 .75-.336.75-.75zm-19.806-2.361 1.249 1.114c.13.116.293.173.456.173.184 0 .369-.074.504-.221l2.116-2.313c.119-.131.178-.296.178-.46 0-.374-.302-.682-.683-.682-.185 0-.369.074-.504.221l-1.661 1.815-.746-.664c-.131-.116-.292-.173-.454-.173-.379 0-.683.306-.683.682 0 .187.076.374.228.509zm19.806-1.639c0-.414-.336-.75-.75-.75h-12.5c-.414 0-.75.336-.75.75s.336.75.75.75h12.5c.414 0 .75-.336.75-.75z" fill-rule="nonzero"/></svg>
  </symbol>
   <symbol id="warning" viewBox="0 0 24 24">
  <svg xmlns="http://www.w3.org/2000/svg" width="24" height="24" viewBox="0 0 24 24"><path d="M12 2c5.514 0 10 4.486 10 10s-4.486 10-10 10-10-4.486-10-10 4.486-10 10-10zm0-2c-6.627 0-12 5.373-12 12s5.373 12 12 12 12-5.373 12-12-5.373-12-12-12zm-1.31 7.526c-.099-.807.528-1.526 1.348-1.526.771 0 1.377.676 1.28 1.451l-.757 6.053c-.035.283-.276.496-.561.496s-.526-.213-.562-.496l-.748-5.978zm1.31 10.724c-.69 0-1.25-.56-1.25-1.25s.56-1.25 1.25-1.25 1.25.56 1.25 1.25-.56 1.25-1.25 1.25z"/></svg>
  </symbol>
</svg>


