<svg xmlns="http://www.w3.org/2000/svg" version="1.1" xmlns:xlink="http://www.w3.org/1999/xlink" xmlns:svgjs="http://svgjs.dev/svgjs" width="768" height="768"><svg version="1.1" xmlns="http://www.w3.org/2000/svg" xmlns:xlink="http://www.w3.org/1999/xlink" xmlns:svg="http://www.w3.org/2000/svg" xmlns:rdf="http://www.w3.org/1999/02/22-rdf-syntax-ns#" xmlns:cc="http://creativecommons.org/ns#" xmlns:dc="http://purl.org/dc/elements/1.1/" viewBox="0 0 768 768" width="768" height="768">
<style>svg {background-color: white; }</style>"
<metadata id="SvgjsMetadata1013">
Created by https://svgstud.io and licensed under CC-BY-SA 4.0 license. Please attribute https://svgstud.io
</metadata>
<metadata id="SvgjsMetadata1012">
icon!!, monochrome, airplane checklist, plain background, very intricate details
</metadata>
<metadata id="SvgjsMetadata1011">
7
</metadata>
<metadata id="SvgjsMetadata1010">
<rdf:rdf>
<cc:work rdf:about="">
    <cc:license rdf:resource="http://creativecommons.org/licenses/by-sa/4.0/"></cc:license>
    <dc:creator>
        <cc:agent>
            <dc:title>https://svgstud.io</dc:title>
        </cc:agent>
    </dc:creator>
</cc:work>
<cc:license rdf:about="http://creativecommons.org/licenses/by-sa/4.0/">
    <cc:permits rdf:resource="http://creativecommons.org/ns#Reproduction"></cc:permits>
    <cc:permits rdf:resource="http://creativecommons.org/ns#Distribution"></cc:permits>
    <cc:requires rdf:resource="http://creativecommons.org/ns#Notice"></cc:requires>
    <cc:requires rdf:resource="http://creativecommons.org/ns#Attribution"></cc:requires>
    <cc:permits rdf:resource="http://creativecommons.org/ns#DerivativeWorks"></cc:permits>
    <cc:requires rdf:resource="http://creativecommons.org/ns#ShareAlike"></cc:requires>
</cc:license>
</rdf:rdf>
</metadata>
<metadata id="SvgjsMetadata1009">
be8db0e6161c50afcef5bc5610c1ff9d76f496507f6d7047387c4482cd1770e8
</metadata>
<path stroke="none" fill="black" fill-rule="evenodd" d="M382.10,703.83C376.27,703.73 369.48,703.51 367.00,703.34C364.52,703.17 357.55,702.53 351.50,701.92C345.45,701.31 335.84,699.96 330.16,698.92C324.47,697.88 314.55,695.70 308.13,694.07C301.70,692.44 290.83,689.23 283.97,686.94C277.11,684.65 266.77,680.73 261.00,678.25C255.22,675.76 246.68,671.81 242.00,669.47C237.32,667.13 229.92,663.09 225.54,660.50C221.16,657.90 214.63,653.73 211.04,651.23C207.44,648.73 202.93,645.53 201.00,644.12C199.07,642.72 193.90,638.66 189.50,635.10C185.10,631.54 176.97,624.46 171.43,619.36C165.89,614.26 156.35,604.56 150.23,597.79C144.11,591.03 136.59,582.35 133.51,578.50C130.44,574.65 123.92,565.88 119.02,559.00C114.12,552.12 107.57,542.45 104.45,537.50C101.34,532.55 95.05,521.30 90.48,512.50C85.91,503.70 80.15,491.55 77.69,485.50C75.23,479.45 71.86,470.23 70.20,465.00C68.54,459.77 66.04,451.23 64.64,446.00C63.25,440.77 61.41,432.23 60.56,427.00C59.71,421.77 58.56,413.45 58.01,408.50C57.47,403.55 57.01,390.05 57.01,378.50C57.01,366.00 57.63,352.04 58.55,344.00C59.40,336.57 61.40,323.97 63.00,315.98C64.59,307.99 67.89,295.15 70.33,287.44C72.76,279.72 77.58,266.78 81.03,258.67C84.48,250.57 90.33,238.38 94.03,231.59C97.73,224.80 104.55,213.45 109.19,206.37C113.82,199.29 122.30,187.88 128.03,181.00C133.75,174.12 143.62,163.32 149.97,156.98C156.31,150.65 167.57,140.59 175.00,134.63C182.43,128.67 195.03,119.45 203.00,114.14C210.97,108.83 224.25,101.04 232.50,96.84C240.75,92.63 253.38,86.72 260.57,83.70C267.75,80.69 278.55,76.63 284.57,74.69C290.58,72.74 300.90,69.79 307.50,68.13C314.10,66.47 325.12,64.16 332.00,62.99C338.88,61.82 351.02,60.23 359.00,59.45C366.98,58.68 379.12,58.03 386.00,58.02C392.88,58.01 403.68,58.47 410.00,59.03C416.32,59.60 428.36,61.19 436.75,62.58C445.13,63.96 458.41,66.85 466.25,69.01C474.09,71.17 485.74,74.93 492.15,77.37C498.56,79.81 511.16,85.37 520.15,89.72C529.14,94.08 541.23,100.48 547.00,103.96C552.77,107.45 562.60,113.92 568.83,118.35C575.07,122.78 586.09,131.43 593.33,137.56C600.58,143.69 611.52,153.84 617.66,160.10C623.80,166.37 631.93,175.32 635.72,180.00C639.51,184.68 645.38,192.15 648.75,196.61C652.12,201.08 657.92,209.40 661.62,215.11C665.33,220.83 672.24,233.15 676.98,242.50C681.71,251.85 687.95,265.49 690.83,272.81C693.72,280.14 697.63,291.58 699.53,298.24C701.43,304.90 704.08,315.80 705.43,322.45C706.78,329.10 708.37,338.36 708.97,343.02C709.57,347.68 710.33,358.93 710.67,368.00C711.04,377.89 710.80,390.51 710.08,399.50C709.41,407.75 707.99,419.68 706.91,426.00C705.84,432.32 703.38,443.51 701.45,450.85C699.53,458.20 696.32,469.00 694.33,474.85C692.34,480.71 688.27,491.12 685.29,498.00C682.32,504.88 677.48,515.00 674.55,520.50C671.62,526.00 666.86,534.33 663.97,539.00C661.09,543.67 656.22,551.10 653.17,555.50C650.11,559.90 643.34,568.90 638.11,575.50C632.88,582.10 620.25,595.85 610.05,606.05C599.85,616.25 586.10,628.90 579.50,634.16C572.90,639.42 562.77,646.77 557.00,650.50C551.23,654.22 543.35,659.18 539.50,661.51C535.65,663.85 528.00,668.01 522.50,670.76C517.00,673.51 508.23,677.55 503.00,679.75C497.77,681.95 487.88,685.59 481.00,687.85C474.12,690.11 461.98,693.52 454.00,695.44C446.02,697.36 434.77,699.60 429.00,700.43C423.23,701.26 412.70,702.40 405.60,702.97C398.51,703.54 387.94,703.92 382.10,703.83zM390.50,675.44C401.50,675.23 415.62,674.36 421.88,673.50C428.14,672.64 438.70,670.79 445.34,669.39C451.99,667.98 462.47,665.31 468.63,663.44C474.80,661.57 484.94,657.97 491.17,655.43C497.40,652.90 507.36,648.38 513.30,645.39C519.24,642.41 528.91,636.96 534.80,633.28C540.68,629.61 547.98,624.81 551.00,622.62C554.02,620.43 559.88,615.92 564.00,612.59C568.12,609.27 576.40,601.81 582.39,596.02C588.37,590.24 597.92,580.43 603.60,574.23C609.28,568.03 618.39,557.01 623.84,549.73C629.28,542.45 636.97,531.33 640.93,525.00C644.88,518.67 651.67,506.30 656.02,497.50C660.37,488.70 665.92,476.09 668.36,469.47C670.80,462.86 674.20,451.84 675.90,444.97C677.61,438.11 679.72,428.00 680.59,422.50C681.49,416.86 682.41,402.91 682.71,390.47C683.13,373.26 682.88,365.50 681.57,354.97C680.64,347.56 678.76,335.88 677.39,329.00C676.02,322.12 673.53,311.77 671.86,306.00C670.19,300.23 667.23,291.23 665.28,286.00C663.33,280.77 659.96,272.45 657.80,267.50C655.63,262.55 651.11,253.55 647.74,247.50C644.38,241.45 639.38,233.12 636.64,229.00C633.90,224.88 628.95,217.90 625.65,213.50C622.34,209.10 617.36,202.80 614.58,199.50C611.80,196.20 604.79,188.40 599.01,182.17C593.23,175.94 583.61,166.50 577.64,161.18C571.66,155.87 562.66,148.23 557.64,144.20C552.61,140.18 543.15,133.28 536.61,128.88C530.08,124.48 518.93,117.97 511.85,114.43C504.77,110.88 494.55,106.19 489.15,104.01C483.75,101.83 474.41,98.51 468.41,96.63C462.41,94.75 452.32,92.05 446.00,90.64C439.68,89.22 430.00,87.33 424.50,86.44C418.69,85.50 405.37,84.60 392.70,84.29C379.34,83.96 365.98,84.21 358.20,84.94C351.21,85.59 339.65,87.24 332.50,88.61C325.35,89.98 314.55,92.41 308.50,94.01C302.45,95.61 292.55,98.69 286.50,100.86C280.45,103.03 270.55,106.92 264.50,109.49C258.45,112.07 250.12,116.01 246.00,118.24C241.88,120.47 233.74,125.14 227.92,128.61C222.11,132.08 212.88,138.15 207.42,142.09C201.97,146.04 192.55,153.44 186.50,158.54C180.45,163.64 170.31,173.14 163.97,179.66C157.62,186.17 147.93,197.12 142.44,204.00C136.94,210.88 129.16,221.13 125.15,226.79C121.14,232.45 116.06,240.25 113.86,244.12C111.67,248.00 107.26,257.09 104.07,264.33C100.88,271.58 96.84,281.70 95.08,286.83C93.32,291.96 90.14,302.99 88.02,311.33C85.89,319.67 83.11,333.02 81.84,341.00C79.86,353.46 79.54,359.09 79.58,381.00C79.61,400.35 80.03,408.91 81.33,416.50C82.27,422.00 84.17,430.90 85.55,436.28C86.92,441.66 90.12,451.79 92.65,458.78C95.18,465.78 99.49,476.00 102.23,481.50C104.97,487.00 108.82,494.20 110.79,497.50C112.75,500.80 117.52,508.00 121.37,513.50C125.23,519.00 129.97,525.41 131.90,527.75C133.84,530.09 135.95,532.00 136.58,532.00C137.22,532.00 139.60,529.99 141.87,527.52C144.14,525.06 146.00,522.55 146.00,521.95C146.00,521.35 143.28,516.73 139.95,511.68C136.62,506.63 131.05,496.88 127.57,490.00C124.08,483.12 119.18,472.32 116.66,466.00C114.15,459.68 110.99,450.00 109.64,444.50C108.30,439.00 106.95,433.37 106.64,431.99C106.33,430.61 106.41,428.95 106.81,428.30C107.22,427.65 114.51,424.66 123.02,421.66C131.54,418.66 146.82,413.20 157.00,409.52C167.18,405.84 178.71,401.72 182.62,400.36C186.54,399.01 190.55,397.32 191.54,396.60C192.53,395.87 193.07,394.62 192.74,393.78C192.43,392.94 189.12,390.56 185.39,388.48C181.66,386.39 176.73,382.95 174.42,380.82C172.11,378.69 169.23,374.64 168.01,371.81C166.24,367.68 165.87,365.26 166.18,359.58C166.44,354.72 167.37,350.76 169.13,346.95C170.55,343.90 173.19,339.71 175.01,337.64C176.83,335.57 180.39,332.83 182.91,331.55C185.88,330.05 195.27,327.77 209.50,325.10C221.60,322.83 244.55,318.31 260.50,315.05C276.45,311.79 298.73,307.03 310.00,304.47C321.27,301.91 331.45,299.22 332.62,298.48C334.46,297.30 334.82,295.80 335.43,286.81C335.81,281.14 337.21,266.15 338.55,253.50C339.88,240.85 341.91,225.55 343.05,219.50C344.18,213.45 345.36,207.11 345.66,205.40C346.21,202.30 346.21,202.30 336.25,201.75C330.03,201.41 325.13,200.60 323.18,199.59C321.46,198.70 318.92,196.30 317.53,194.26C316.14,192.21 315.00,189.98 315.00,189.29C315.00,188.61 316.07,187.34 317.38,186.49C318.96,185.45 325.05,184.44 335.63,183.47C344.36,182.67 351.58,182.01 351.67,182.00C351.76,182.00 352.61,179.64 353.56,176.75C354.50,173.86 356.62,168.80 358.27,165.50C359.91,162.20 362.56,157.84 364.16,155.82C365.76,153.79 368.58,151.63 370.44,151.02C373.13,150.13 374.57,150.21 377.40,151.39C379.71,152.36 382.03,154.56 383.99,157.64C385.65,160.26 387.93,164.88 389.06,167.90C390.20,170.92 392.20,177.70 393.53,182.95C394.85,188.20 396.60,196.95 397.42,202.40C398.23,207.84 399.26,212.60 399.70,212.96C400.14,213.32 405.23,213.31 411.00,212.92C416.77,212.53 427.86,212.16 435.63,212.11C446.85,212.02 450.00,212.30 450.96,213.45C451.62,214.25 451.89,215.78 451.54,216.86C451.20,217.94 447.59,221.98 443.52,225.85C437.36,231.70 435.04,233.22 429.73,234.86C426.21,235.94 419.40,237.61 414.58,238.57C409.40,239.60 405.60,240.87 405.29,241.69C405.00,242.45 405.50,253.94 406.41,267.23C407.32,280.52 408.20,291.54 408.37,291.70C408.54,291.87 418.54,294.00 430.59,296.44C442.64,298.87 464.20,303.38 478.50,306.47C492.80,309.55 511.00,313.67 518.94,315.61C526.88,317.56 536.15,320.41 539.55,321.95C542.94,323.49 548.76,326.83 552.48,329.37C556.19,331.92 559.63,334.00 560.12,334.00C560.60,334.00 561.00,333.51 561.00,332.90C561.00,332.30 560.26,330.24 559.36,328.34C558.45,326.43 555.22,322.84 552.17,320.36C549.12,317.88 544.57,314.81 542.06,313.56C539.55,312.30 528.74,308.69 518.04,305.54C507.33,302.39 496.53,298.78 494.04,297.51C491.54,296.23 488.76,293.91 487.86,292.35C486.96,290.78 485.66,286.95 484.97,283.83C483.99,279.37 483.98,277.14 484.93,273.33C485.59,270.68 488.53,263.55 491.46,257.50C494.80,250.61 499.00,243.89 502.68,239.51C505.92,235.67 511.93,229.70 516.04,226.24C520.14,222.78 524.51,219.69 525.74,219.37C527.45,218.93 529.56,220.07 534.59,224.14C538.22,227.09 542.66,231.53 544.45,234.00C546.24,236.47 548.22,240.03 548.85,241.90C549.48,243.77 550.01,249.62 550.01,254.90C550.02,260.18 550.30,265.51 550.63,266.75C550.96,267.99 551.75,269.00 552.39,269.00C553.02,269.00 557.81,264.69 563.02,259.43C568.23,254.17 573.23,249.46 574.13,248.96C575.42,248.25 576.48,249.15 579.29,253.38C581.23,256.30 584.16,261.35 585.79,264.60C587.43,267.84 589.72,273.58 590.89,277.36C592.05,281.13 593.00,285.70 593.00,287.52C593.00,290.74 592.66,291.00 580.25,297.51C573.24,301.19 566.71,304.91 565.74,305.77C564.77,306.63 564.18,308.05 564.43,308.92C564.68,309.79 565.38,312.41 565.98,314.75C566.79,317.89 567.58,319.00 568.99,319.00C570.05,319.00 575.99,317.02 582.21,314.59C588.42,312.17 599.54,307.45 606.93,304.11C614.32,300.77 620.82,297.58 621.39,297.01C622.09,296.31 621.80,294.16 620.49,290.24C619.43,287.09 615.79,279.00 612.41,272.27C609.02,265.54 603.29,255.64 599.67,250.27C596.05,244.90 590.05,236.68 586.34,232.00C582.64,227.32 573.73,217.62 566.55,210.43C558.04,201.91 548.11,193.34 538.00,185.82C529.48,179.47 518.63,171.97 513.91,169.15C509.18,166.33 499.28,161.14 491.91,157.61C484.53,154.09 473.55,149.38 467.50,147.14C461.45,144.90 452.60,141.96 447.83,140.59C443.07,139.23 433.39,136.99 426.33,135.63C419.28,134.26 410.80,132.77 407.50,132.32C401.50,131.50 401.50,131.50 401.50,116.00C401.50,100.50 401.50,100.50 410.75,100.69C415.84,100.80 425.51,101.82 432.25,102.96C438.98,104.11 449.67,106.36 456.00,107.97C462.32,109.58 473.57,112.96 481.00,115.48C488.43,118.00 502.62,124.07 512.55,128.97C522.71,133.98 536.48,141.81 544.05,146.87C551.45,151.82 561.33,158.94 566.00,162.68C570.67,166.43 581.04,176.02 589.04,183.99C597.03,191.97 607.33,203.22 611.92,209.00C616.51,214.78 623.29,224.00 626.98,229.50C630.68,235.00 636.92,245.35 640.86,252.50C644.80,259.65 649.86,270.18 652.10,275.90C654.34,281.61 656.41,287.76 656.70,289.55C657.13,292.20 656.79,293.09 654.86,294.34C653.56,295.19 648.67,297.82 644.00,300.19C635.50,304.50 635.50,304.50 636.00,312.00C636.27,316.12 636.45,323.21 636.38,327.74C636.31,332.73 635.76,336.58 635.00,337.50C634.31,338.34 629.53,341.02 624.39,343.47C619.25,345.92 610.20,350.02 604.27,352.59C598.35,355.15 592.09,358.29 590.37,359.58C587.59,361.65 587.16,362.67 586.53,368.59C586.13,372.27 585.13,377.57 584.30,380.39C583.47,383.20 582.31,386.10 581.71,386.82C581.12,387.55 579.03,388.95 577.07,389.94C575.11,390.92 565.17,394.77 555.00,398.48C544.83,402.19 536.00,405.63 535.39,406.12C534.79,406.60 532.59,413.79 530.51,422.09C527.09,435.75 526.85,437.55 527.96,441.25C528.72,443.79 531.31,447.57 534.77,451.20C537.85,454.42 541.84,457.98 543.65,459.09C546.94,461.13 546.94,461.13 556.22,458.59C561.32,457.19 571.53,454.02 578.89,451.55C586.26,449.07 593.39,446.32 594.74,445.44C596.08,444.55 598.25,441.51 599.54,438.67C600.83,435.82 603.03,429.54 604.43,424.70C605.82,419.86 607.84,410.68 608.91,404.29C610.49,394.89 611.31,392.23 613.28,390.26C614.62,388.93 622.42,384.36 630.61,380.11C638.80,375.86 651.04,369.30 657.80,365.54C667.38,360.22 670.37,358.97 671.30,359.91C672.16,360.77 672.46,366.44 672.35,379.80C672.27,390.09 671.67,403.00 671.02,408.50C670.37,414.00 668.97,422.84 667.91,428.14C666.85,433.45 664.63,442.20 662.97,447.59C661.31,452.99 658.35,461.92 656.38,467.45C654.42,472.98 650.58,482.23 647.85,488.00C645.12,493.77 640.82,502.10 638.30,506.50C635.78,510.90 630.56,519.23 626.69,525.00C622.83,530.77 616.97,539.10 613.68,543.50C610.38,547.90 604.95,554.65 601.60,558.50C598.26,562.35 590.85,570.57 585.15,576.76C579.45,582.95 570.67,591.54 565.64,595.85C560.61,600.16 552.48,606.71 547.56,610.40C542.64,614.10 534.60,619.60 529.71,622.63C524.81,625.66 515.56,630.77 509.15,633.99C502.74,637.21 493.00,641.62 487.50,643.80C482.00,645.98 473.68,648.91 469.00,650.33C464.32,651.75 453.63,654.29 445.23,655.99C436.84,657.68 426.33,659.35 421.87,659.69C413.77,660.31 413.77,660.31 414.40,644.41C414.75,635.66 415.29,623.93 415.61,618.33C416.16,608.47 416.26,608.14 418.84,607.16C420.30,606.60 428.25,604.49 436.50,602.47C444.75,600.45 456.00,597.11 461.50,595.04C467.00,592.98 476.68,588.79 483.00,585.73C489.33,582.68 499.00,577.36 504.50,573.91C510.00,570.46 517.88,565.17 522.00,562.15C526.12,559.13 534.00,552.75 539.50,547.97C545.00,543.20 553.52,535.07 558.43,529.90C563.35,524.74 570.46,516.34 574.25,511.24C578.03,506.13 583.12,498.25 585.55,493.73C587.98,489.20 589.97,484.71 589.98,483.75C590.00,482.48 589.20,482.00 587.07,482.00C584.67,482.00 582.91,483.40 577.32,489.74C573.57,494.00 567.04,501.09 562.81,505.49C558.59,509.90 553.75,514.31 552.07,515.31C549.00,517.11 549.00,517.11 536.53,504.99C526.59,495.33 523.72,493.06 522.41,493.79C521.50,494.30 519.45,498.80 517.85,503.79C515.33,511.69 514.36,513.40 510.44,516.84C507.96,519.03 501.75,522.65 496.64,524.89C491.52,527.13 484.45,529.72 480.91,530.65C477.28,531.61 473.33,532.05 471.82,531.67C469.54,531.10 468.79,529.85 466.45,522.75C464.96,518.21 458.54,500.77 452.18,484.00C440.62,453.50 440.62,453.50 440.22,439.21C439.82,425.12 439.78,424.93 437.66,425.59C436.47,425.96 429.33,428.24 421.79,430.65C408.28,434.99 408.07,435.10 407.55,438.28C407.26,440.05 405.90,451.37 404.54,463.44C403.17,475.51 402.29,485.63 402.59,485.93C402.89,486.23 410.07,487.24 418.54,488.19C427.01,489.13 435.76,490.40 437.97,490.99C441.43,491.92 442.00,492.47 442.00,494.81C442.00,496.31 440.90,499.15 439.56,501.12C438.22,503.10 435.63,505.42 433.81,506.27C431.99,507.13 425.32,508.57 419.00,509.47C412.68,510.37 406.78,511.32 405.91,511.57C404.76,511.91 403.97,514.36 403.06,520.47C402.34,525.33 400.64,531.35 399.04,534.70C397.51,537.89 395.19,541.49 393.87,542.70C392.55,543.91 389.81,545.60 387.77,546.45C385.73,547.30 382.14,547.99 379.78,547.98C377.43,547.97 373.70,547.14 371.49,546.14C369.29,545.13 366.11,542.75 364.43,540.83C362.75,538.92 360.09,534.42 358.53,530.82C355.68,524.29 355.68,524.29 341.37,523.71C332.71,523.36 325.96,522.61 324.28,521.81C322.76,521.08 320.93,519.26 320.21,517.76C319.22,515.69 319.18,514.53 320.04,512.93C320.65,511.78 322.81,510.14 324.83,509.30C326.85,508.45 333.90,506.56 340.50,505.09C352.50,502.42 352.50,502.42 352.81,498.66C352.99,496.59 352.43,490.76 351.59,485.70C350.74,480.64 348.50,467.33 346.61,456.11C344.68,444.62 342.65,435.40 341.96,434.97C341.28,434.56 337.98,433.65 334.62,432.96C331.25,432.26 322.04,429.94 314.14,427.79C306.24,425.65 299.52,424.15 299.21,424.46C298.89,424.77 299.28,432.56 300.07,441.76C300.86,450.97 301.44,461.88 301.36,466.00C301.25,471.42 300.48,475.43 298.56,480.49C297.10,484.33 293.85,490.78 291.34,494.81C288.83,498.84 283.33,505.64 279.13,509.92C274.94,514.19 268.12,520.07 264.00,522.96C259.88,525.86 253.80,529.53 250.50,531.12C247.20,532.70 243.76,534.00 242.86,534.00C241.95,534.00 240.94,533.29 240.61,532.42C240.27,531.55 240.00,526.84 240.00,521.96C240.00,513.07 240.00,513.07 233.98,508.99C230.67,506.74 224.75,502.21 220.81,498.91C213.66,492.92 213.66,492.92 210.04,496.46C208.05,498.41 205.98,500.00 205.46,500.00C204.93,500.00 201.99,497.19 198.91,493.75C195.84,490.31 189.99,482.96 185.91,477.42C181.84,471.88 174.02,460.08 168.55,451.20C163.08,442.33 157.94,434.81 157.14,434.50C156.33,434.19 155.23,434.37 154.70,434.90C154.07,435.53 154.13,437.45 154.85,440.32C155.47,442.77 157.47,448.31 159.29,452.64C161.12,456.96 165.87,466.01 169.84,472.74C173.81,479.47 180.58,489.37 184.88,494.74C189.17,500.11 198.50,510.37 205.60,517.55C212.69,524.72 222.32,533.65 227.00,537.37C231.68,541.10 240.70,547.65 247.07,551.92C253.43,556.20 263.33,562.19 269.07,565.25C274.80,568.31 284.75,572.86 291.16,575.38C297.57,577.90 307.69,581.33 313.66,583.00C319.62,584.68 329.45,586.99 335.50,588.13C343.46,589.62 352.37,590.34 367.75,590.73C388.54,591.25 389.00,591.31 389.05,593.38C389.08,594.55 389.06,601.11 389.00,607.97C388.93,616.42 388.51,620.72 387.70,621.28C387.04,621.74 377.27,621.90 366.00,621.64C354.30,621.37 341.00,620.45 335.02,619.50C329.25,618.59 319.35,616.53 313.02,614.91C306.68,613.30 296.55,610.31 290.50,608.27C284.45,606.23 272.07,600.87 263.00,596.37C253.93,591.86 241.78,585.03 236.00,581.18C230.22,577.33 222.57,571.67 219.00,568.60C215.43,565.54 211.80,563.02 210.95,563.01C209.93,563.00 207.61,567.18 204.03,575.52C201.07,582.41 197.83,589.39 196.84,591.02C195.84,592.66 194.41,594.00 193.65,594.00C192.90,594.00 188.96,591.75 184.90,589.00C180.84,586.25 177.17,584.00 176.74,584.00C176.30,584.00 176.63,585.32 177.47,586.93C178.30,588.55 181.54,592.63 184.66,596.00C187.78,599.37 194.75,605.68 200.15,610.02C205.55,614.37 215.71,621.71 222.74,626.34C229.76,630.97 241.35,637.94 248.50,641.83C255.65,645.73 267.69,651.42 275.24,654.48C282.80,657.54 294.31,661.57 300.81,663.45C307.31,665.32 318.00,667.97 324.57,669.35C331.13,670.73 342.35,672.56 349.50,673.42C356.65,674.28 364.30,675.17 366.50,675.40C368.70,675.62 379.50,675.64 390.50,675.44zM376.59,531.00C377.86,531.00 380.09,530.46 381.53,529.80C382.98,529.14 384.96,527.01 385.94,525.05C386.93,523.10 388.30,519.09 388.99,516.14C390.04,511.66 390.03,510.63 388.88,509.88C388.12,509.39 382.55,509.27 376.50,509.62C370.45,509.97 364.94,510.70 364.26,511.25C363.50,511.84 363.27,513.26 363.65,514.86C364.00,516.31 365.33,519.59 366.61,522.15C367.89,524.71 370.13,527.75 371.60,528.90C373.07,530.06 375.31,531.00 376.59,531.00zM373.94,495.65C378.29,495.35 380.76,494.68 381.55,493.59C382.20,492.71 383.03,487.38 383.39,481.75C383.76,476.11 384.72,453.50 385.52,431.50C386.32,409.50 386.96,366.52 386.94,336.00C386.93,305.48 386.53,269.16 386.05,255.31C385.58,241.45 384.88,229.62 384.51,229.01C384.04,228.26 383.43,228.23 382.61,228.91C381.95,229.46 376.61,230.22 370.75,230.60C360.09,231.29 360.09,231.29 358.92,228.73C358.13,227.00 358.05,224.95 358.66,222.34C359.57,218.50 359.57,218.50 371.53,217.89C378.12,217.55 383.61,217.21 383.75,217.14C383.89,217.06 383.99,215.09 383.98,212.75C383.98,210.41 383.58,207.88 383.10,207.13C382.41,206.04 380.03,205.91 371.12,206.49C360.00,207.22 360.00,207.22 360.02,203.86C360.04,202.01 360.51,198.49 361.08,196.02C361.65,193.56 362.65,191.21 363.31,190.79C363.96,190.37 367.20,190.02 370.50,190.00C373.80,189.99 377.51,189.70 378.75,189.37C380.53,188.89 381.00,188.05 381.00,185.34C381.00,183.46 380.09,180.14 378.99,177.97C377.88,175.80 375.88,173.31 374.55,172.44C373.22,171.57 370.88,171.00 369.35,171.18C367.40,171.40 365.49,172.92 362.98,176.26C361.00,178.88 358.63,183.15 357.70,185.76C356.77,188.37 354.91,197.70 353.55,206.50C352.19,215.30 350.59,227.68 349.98,234.00C349.38,240.32 348.62,267.91 348.31,295.31C347.93,328.47 348.13,352.03 348.93,365.81C349.58,377.19 350.78,394.38 351.59,404.00C352.39,413.62 354.16,429.15 355.51,438.50C356.85,447.85 359.51,464.23 361.40,474.89C363.45,486.40 365.39,494.66 366.17,495.20C366.90,495.70 370.40,495.90 373.94,495.65zM474.01,430.00C475.02,430.00 476.01,429.04 476.31,427.75C476.61,426.51 477.16,421.56 477.54,416.75C477.98,411.28 477.87,408.00 477.27,408.00C476.73,408.00 474.80,409.01 472.97,410.25C471.14,411.49 469.29,413.79 468.87,415.37C468.45,416.95 468.47,420.21 468.92,422.61C469.37,425.01 470.30,427.66 470.99,428.49C471.68,429.32 473.04,430.00 474.01,430.00zM242.99,428.00C244.01,428.00 245.56,427.72 246.46,427.38C247.35,427.04 248.69,425.57 249.43,424.13C250.18,422.68 251.10,418.56 251.49,414.97C252.08,409.45 251.90,408.11 250.34,406.23C249.33,405.01 247.10,403.74 245.39,403.41C242.73,402.89 242.19,403.14 241.66,405.15C241.31,406.44 241.02,409.16 241.01,411.19C241.01,413.22 240.57,415.15 240.04,415.47C239.52,415.80 238.44,415.04 237.66,413.78C236.87,412.53 235.68,409.79 235.02,407.70C234.35,405.61 233.29,404.08 232.66,404.30C231.93,404.56 231.56,406.94 231.67,410.74C231.76,414.06 232.53,418.12 233.38,419.77C234.23,421.41 236.33,423.94 238.04,425.38C239.75,426.82 241.98,428.00 242.99,428.00zM259.86,428.00C260.46,428.00 261.64,426.67 262.47,425.05C263.31,423.43 264.00,420.05 264.00,417.55C264.00,414.38 263.59,413.00 262.64,413.00C261.74,413.00 261.06,414.80 260.63,418.25C260.28,421.14 259.72,424.51 259.38,425.75C259.02,427.08 259.21,428.00 259.86,428.00zM492.15,426.00C492.62,426.00 493.88,425.12 494.94,424.06C496.01,422.99 497.59,419.75 498.44,416.87C499.30,413.99 499.99,410.48 499.98,409.07C499.98,407.66 499.60,405.92 499.15,405.20C498.49,404.17 498.05,404.23 496.99,405.51C496.26,406.39 494.23,407.71 492.48,408.45C490.12,409.43 489.13,410.62 488.65,413.01C488.29,414.79 488.00,417.62 488.00,419.30C488.00,420.97 488.74,423.17 489.65,424.17C490.57,425.18 491.69,426.00 492.15,426.00zM337.78,415.93C338.49,415.97 339.28,415.43 339.55,414.73C339.82,414.03 339.33,405.82 338.47,396.48C337.61,387.14 336.63,368.80 336.30,355.72C335.97,342.64 335.35,331.72 334.92,331.45C334.49,331.19 314.69,331.65 290.91,332.49C267.13,333.33 244.72,334.24 241.09,334.51C237.47,334.78 223.93,335.73 211.00,336.64C196.43,337.65 186.49,338.79 184.83,339.62C183.19,340.45 181.14,343.12 179.53,346.53C178.08,349.60 176.63,354.29 176.32,356.97C176.00,359.64 176.02,362.92 176.35,364.26C176.69,365.59 178.21,367.94 179.73,369.48C181.25,371.01 184.41,373.09 186.74,374.09C189.07,375.10 197.62,377.77 205.74,380.03C213.86,382.30 231.53,387.24 245.00,391.01C258.48,394.79 274.45,399.26 280.50,400.94C286.55,402.62 301.62,406.67 314.00,409.93C326.38,413.20 337.08,415.90 337.78,415.93zM410.77,414.00C411.25,414.00 428.48,408.42 449.07,401.60C469.66,394.77 497.90,385.31 511.84,380.57C525.78,375.84 538.51,371.27 540.13,370.43C541.76,369.59 543.58,367.69 544.18,366.20C544.79,364.72 545.33,357.11 545.39,349.31C545.47,339.31 545.14,334.75 544.27,333.88C543.38,332.98 533.19,332.45 506.27,331.89C486.05,331.47 456.17,331.10 439.88,331.07C410.25,331.00 410.25,331.00 409.62,334.12C409.28,335.84 409.00,341.40 409.00,346.47C409.00,351.54 409.29,361.83 409.66,369.34C410.02,376.85 410.68,383.00 411.13,383.00C411.58,383.00 412.58,381.76 413.36,380.25C414.13,378.74 415.07,375.63 415.45,373.34C415.83,371.05 416.92,368.48 417.86,367.63C418.80,366.77 421.70,365.14 424.30,363.99C426.90,362.84 429.47,362.17 430.01,362.51C430.56,362.84 431.00,365.68 430.99,368.81C430.99,371.94 430.53,379.67 429.97,385.99C429.31,393.40 428.45,397.98 427.53,398.90C426.75,399.68 422.60,401.06 418.31,401.98C410.50,403.64 410.50,403.64 410.20,408.82C410.03,411.67 410.29,414.00 410.77,414.00zM558.01,371.00C559.16,370.38 560.98,368.44 562.05,366.69C563.12,364.93 563.99,362.66 564.00,361.63C564.00,360.04 563.76,359.95 562.42,361.06C561.55,361.79 559.73,364.57 558.37,367.25C555.99,371.95 555.98,372.08 558.01,371.00zM110.27,350.75C105.75,351.83 101.81,352.48 101.52,352.19C101.24,351.90 101.00,350.19 101.00,348.38C101.00,346.58 101.92,340.24 103.05,334.30C104.18,328.36 106.46,318.56 108.12,312.53C109.78,306.49 113.16,296.59 115.64,290.53C118.12,284.46 122.88,274.32 126.22,268.00C129.57,261.68 135.58,251.55 139.59,245.50C143.60,239.45 150.81,229.55 155.62,223.50C160.44,217.45 170.36,206.50 177.68,199.18C186.49,190.35 191.58,185.96 192.74,186.18C193.78,186.38 196.44,190.18 199.23,195.44C201.83,200.35 204.40,204.80 204.94,205.34C205.57,205.97 207.76,204.88 211.21,202.22C214.12,199.98 217.83,196.75 219.45,195.06C222.40,191.98 222.40,191.98 219.18,180.74C217.41,174.56 215.97,168.56 215.98,167.41C215.99,165.96 218.36,163.63 223.75,159.79C228.01,156.75 236.00,151.56 241.50,148.26C247.00,144.97 254.80,140.61 258.82,138.59C262.85,136.56 271.17,132.84 277.32,130.31C283.47,127.79 291.65,124.65 295.50,123.33C299.35,122.01 306.86,119.82 312.18,118.46C317.51,117.11 323.01,116.00 324.41,116.00C326.23,116.00 327.13,116.65 327.53,118.26C327.84,119.51 327.96,123.89 327.80,128.01C327.50,135.50 327.50,135.50 323.00,136.80C320.52,137.52 313.37,139.70 307.11,141.64C300.84,143.58 289.27,148.14 281.39,151.77C273.51,155.40 265.83,159.36 264.32,160.56C261.56,162.76 261.56,162.76 264.91,171.63C266.75,176.51 271.83,188.60 276.19,198.50C280.55,208.40 286.46,222.57 289.31,230.00C294.49,243.50 294.49,243.50 294.44,257.50C294.41,265.95 293.91,272.61 293.20,274.30C292.41,276.17 290.41,277.82 287.25,279.23C284.64,280.39 275.98,283.70 268.00,286.57C260.02,289.45 235.09,298.40 212.59,306.46C190.09,314.52 170.42,321.76 168.88,322.56C166.81,323.63 165.67,325.37 164.54,329.19C163.69,332.03 163.00,335.13 163.00,336.06C163.00,336.99 162.41,338.24 161.69,338.84C160.97,339.44 156.45,340.85 151.65,341.96C146.85,343.08 142.71,344.00 142.46,344.00C142.21,344.00 142.00,342.59 142.00,340.88C142.00,339.16 143.59,332.97 145.54,327.13C147.48,321.28 152.61,309.30 156.93,300.50C161.25,291.70 168.40,279.06 172.81,272.42C177.23,265.78 183.02,257.90 185.68,254.92C188.35,251.94 191.14,248.72 191.88,247.76C193.06,246.23 192.70,245.12 189.07,239.01C186.78,235.15 184.30,232.00 183.54,232.00C182.79,232.00 179.04,235.94 175.21,240.75C171.37,245.56 165.80,253.15 162.82,257.60C159.84,262.06 154.21,271.96 150.31,279.60C146.40,287.25 141.18,298.68 138.71,305.00C136.23,311.32 133.19,319.88 131.96,324.00C130.72,328.12 128.96,334.88 128.05,339.00C126.41,346.43 126.35,346.51 122.45,347.64C120.28,348.27 114.80,349.67 110.27,350.75zM105.00,252.93C105.86,252.95 109.71,247.81 114.00,240.91C118.12,234.28 122.96,226.30 124.74,223.17C126.52,220.05 127.98,216.49 127.99,215.25C127.99,214.02 126.37,211.20 124.38,209.00C122.39,206.80 120.18,205.00 119.45,205.00C118.73,205.00 115.46,208.71 112.19,213.25C108.92,217.79 103.91,225.45 101.07,230.27C98.22,235.10 95.24,240.89 94.45,243.15C93.65,245.41 93.00,247.45 93.00,247.68C93.00,247.92 95.36,249.19 98.25,250.50C101.14,251.81 104.17,252.90 105.00,252.93z"></path>
</svg><style>@media (prefers-color-scheme: light) { :root { filter: none; } }
@media (prefers-color-scheme: dark) { :root { filter: none; } }
</style></svg>